<svg id="Layer_1" data-name="Layer 1" xmlns="http://www.w3.org/2000/svg" viewBox="0 0 396 396"><defs><style>.cls-1{fill:#fff;fill-rule:evenodd;}</style></defs><path class="cls-1" d="M941.62,0A48.41,48.41,0,0,1,990,48.38V347.62A48.41,48.41,0,0,1,941.62,396H859.27V246.79h51.51l9.8-63.9H859.27V141.42c0-17.48,8.57-34.52,36-34.52h27.87V52.49s-25.29-4.31-49.48-4.31c-50.5,0-83.5,30.6-83.5,86v48.7H734.06v63.9h56.13V396H642.38A48.41,48.41,0,0,1,594,347.62V48.38A48.41,48.41,0,0,1,642.38,0Z" transform="translate(-594 0)"/></svg>