<svg id="Layer_1" data-name="Layer 1" xmlns="http://www.w3.org/2000/svg" viewBox="0 0 396 396"><defs><style>.cls-1{fill:#fff;fill-rule:evenodd;}</style></defs><path class="cls-1" d="M941.62,0A48.41,48.41,0,0,1,990,48.38V347.62A48.41,48.41,0,0,1,941.62,396H642.38A48.41,48.41,0,0,1,594,347.62V48.38A48.41,48.41,0,0,1,642.38,0ZM792,62.65c-36.76,0-41.37.15-55.81.81S712,66.41,703.34,69.75a69.32,69.32,0,0,0-39.59,39.59c-3.34,8.61-5.63,18.45-6.29,32.85s-.81,19.05-.81,55.81.15,41.37.81,55.81,2.95,24.24,6.29,32.85a69.32,69.32,0,0,0,39.59,39.59c8.61,3.34,18.45,5.63,32.85,6.29s19,.81,55.81.81,41.37-.15,55.81-.81,24.24-3,32.85-6.29a69.32,69.32,0,0,0,39.59-39.59c3.34-8.61,5.63-18.45,6.29-32.85s.81-19.05.81-55.81-.15-41.37-.81-55.81-2.95-24.24-6.29-32.85a69.32,69.32,0,0,0-39.59-39.59c-8.61-3.34-18.45-5.63-32.85-6.29S828.76,62.65,792,62.65ZM792,87c36.14,0,40.42.13,54.69.79,13.2.6,20.37,2.8,25.14,4.66a44.78,44.78,0,0,1,25.68,25.68c1.86,4.77,4.06,11.94,4.66,25.14.66,14.27.79,18.55.79,54.69s-.13,40.42-.79,54.69c-.6,13.2-2.8,20.37-4.66,25.14a44.78,44.78,0,0,1-25.68,25.68c-4.77,1.86-11.94,4.06-25.14,4.66-14.27.66-18.55.79-54.69.79s-40.42-.13-54.69-.79c-13.2-.6-20.37-2.8-25.14-4.66a44.78,44.78,0,0,1-25.68-25.68c-1.86-4.77-4.06-11.94-4.67-25.14-.65-14.27-.78-18.55-.78-54.69s.13-40.42.78-54.69c.61-13.2,2.81-20.37,4.67-25.14a44.78,44.78,0,0,1,25.68-25.68c4.77-1.86,11.94-4.06,25.14-4.66C751.58,87.17,755.86,87,792,87Zm0,41.46A69.5,69.5,0,1,0,861.5,198,69.49,69.49,0,0,0,792,128.5Zm0,114.62A45.12,45.12,0,1,1,837.12,198,45.12,45.12,0,0,1,792,243.12Zm88.49-117.37a16.24,16.24,0,1,1-16.24-16.24,16.24,16.24,0,0,1,16.24,16.24Z" transform="translate(-594 0)"/></svg>