<svg id="Layer_1" data-name="Layer 1" xmlns="http://www.w3.org/2000/svg" viewBox="0 0 49.42 49.74"><defs><style>.cls-1{fill:#fff;}</style></defs><path d="M30.07,27.1V27a.56.56,0,0,1-.05.08Z" transform="translate(-3.49 -4.67)"/><path class="cls-1" d="M49.26,4.67H7.14A3.61,3.61,0,0,0,3.49,8.23V50.84A3.61,3.61,0,0,0,7.14,54.4H49.26a3.61,3.61,0,0,0,3.66-3.56V8.23A3.61,3.61,0,0,0,49.26,4.67ZM18.48,46.3H11V23.84h7.47ZM14.74,20.78h-.05a3.89,3.89,0,1,1,.1-7.76,3.89,3.89,0,1,1,0,7.76ZM45.39,46.3H37.93v-12c0-3-1.08-5.08-3.78-5.08a4.09,4.09,0,0,0-3.83,2.73,5,5,0,0,0-.25,1.82V46.3H22.61s.1-20.35,0-22.46h7.46V27a7.42,7.42,0,0,1,6.73-3.71c4.91,0,8.6,3.21,8.6,10.11V46.3Z" transform="translate(-3.49 -4.67)"/></svg>